<svg xmlns="http://www.w3.org/2000/svg" viewBox="0 0 31.58 47.36"><defs><style>.cls-1{isolation:isolate;}.cls-2{fill:#fd0;}.cls-3{fill:#fff;}.cls-4{mix-blend-mode:multiply;}.cls-5{fill:#a6a8ac;}</style></defs><title>knowledge_logo</title><g class="cls-1"><g id="Layer_2" data-name="Layer 2"><g id="Layer_1-2" data-name="Layer 1"><g id="_Group_" data-name="&lt;Group&gt;"><g id="_Group_2" data-name="&lt;Group&gt;"><g id="_Group_3" data-name="&lt;Group&gt;"><g id="_Group_4" data-name="&lt;Group&gt;"><g id="_Group_5" data-name="&lt;Group&gt;"><path id="_Path_" data-name="&lt;Path&gt;" class="cls-2" d="M16.29,35.14V0S30.35,0,31.52,15c0,0,1.37,10.35-9.27,16.21v3.9Z"/></g></g><g id="_Group_6" data-name="&lt;Group&gt;"><g id="_Group_7" data-name="&lt;Group&gt;"><g id="_Group_8" data-name="&lt;Group&gt;"><path id="_Compound_Path_" data-name="&lt;Compound Path&gt;" class="cls-3" d="M2.81,26.43a4.44,4.44,0,0,1-1.06-3.14,7.83,7.83,0,0,1,.15-1,.38.38,0,0,0-.12-.38,2.34,2.34,0,0,1-.69-2c0-.11,0-.21,0-.32-.53-.26-1-1.52-1.08-2.2,0-.38,0-.58.55-1.12l.2-.17-.13-.18A3.47,3.47,0,0,1,0,13.72a2.67,2.67,0,0,1,.88-1.56c.74-.56.62-.71.6-.88a2.16,2.16,0,0,1,.07-.85,1.44,1.44,0,0,0,.06-.83,3,3,0,0,1,.07-1.77,5.15,5.15,0,0,1,.59-1.32A2.83,2.83,0,0,1,3.77,5.33c.32-.1.36-.66.41-1a3,3,0,0,1,.44-1.24,2.86,2.86,0,0,1,1.44-1,2.83,2.83,0,0,1,1.63,0l.48.12.27,0a.42.42,0,0,0,.32-.14c.19-.2.41-.46.59-.66s.46-.49.72-.72A3.51,3.51,0,0,1,12.85.08a1.48,1.48,0,0,1,.76.52c.05.05.06,0,.13,0a.69.69,0,0,1,.43.09A1.76,1.76,0,0,1,15.08,2a2.54,2.54,0,0,1,0,.87,5.43,5.43,0,0,0-.17,1c.09.47.18.94.31,1.4a3.42,3.42,0,0,1,.13,1.15,1.36,1.36,0,0,1-.23.76,3.37,3.37,0,0,0-.19.32.52.52,0,0,0,0,.47c.06.13.11.27.18.39a2.07,2.07,0,0,1,.25,1,8.65,8.65,0,0,1-.47,3.23.56.56,0,0,0,.07.61,1.3,1.3,0,0,1,.15,1.12,2.88,2.88,0,0,1-.64,1.2c.06.08.14.15.2.23A1.79,1.79,0,0,1,15.05,17L15,19a4.49,4.49,0,0,1-.26,1.63c-.18.44-.37.88-.55,1.33,0,.07-.07.15-.11.24a1.35,1.35,0,0,1,.72.85A2.91,2.91,0,0,1,15,24.16c0,.4,0,.65,0,1a6.76,6.76,0,0,1-.24,1.36.88.88,0,0,0,0,.54,1.05,1.05,0,0,1,.06.69,1.33,1.33,0,0,1-.31.6,2.57,2.57,0,0,1,.73.84,1.19,1.19,0,0,1-.06,1c-.14.29-.55,1-.59,1a.32.32,0,0,0,0,.3s.06.18.09.3c.51,1.86,0,2.76-.23,2.91s-1.51.17-1.78.15a1.74,1.74,0,0,1-.87-.39c-.29-.15-.37.28-1.06.35-.86.08-1.07-.07-1.34-.34s-.33-.82-.29-2.91c0-.46-.78-.14-1.56-1s-.47-1.2-1.32-1.32A2.75,2.75,0,0,1,4,27.43C3.75,27.09,3,26.68,2.81,26.43ZM9.5,31.6c0,.63-.17,1.06.16,1.1.54,0,.61.1.33.27s-.39,0-.43.32a1.29,1.29,0,0,0,.24,1,1.2,1.2,0,0,0,1.54-.23,4.89,4.89,0,0,1-.32-1c0-.12,0-.33-.13-.38a.44.44,0,0,1-.32-.38,1.08,1.08,0,0,1,0-.4.67.67,0,0,1,.68-.59c.15,0,.3,0,.44,0l.4.06s.09,0,.12,0a.1.1,0,0,1,.06.08.11.11,0,0,1-.06.09.2.2,0,0,1-.11,0l-.29-.05a.86.86,0,0,0-.8.24.55.55,0,0,0,0,.4.27.27,0,0,0,.1.11.37.37,0,0,1,.16.3c0,.18.05.36.09.53a1.44,1.44,0,0,0,.25.67,2.64,2.64,0,0,0,.36.39c.31.31.41.28,1.06.31s.67.09.86,0c.57-.14.64-.81.65-1.39a3,3,0,0,0-.17-1.26l-.09-.25-1.2,1a.15.15,0,0,1-.18,0,.24.24,0,0,1,0-.2c.05-.13.13-.14.24-.22a7.71,7.71,0,0,0,1.21-1.1c.14-.23.35-.58.5-.88a1,1,0,0,0,0-1c-.07-.12-.15-.25-.23-.36a.53.53,0,0,0-.69-.19l-.49.23a2.79,2.79,0,0,1-1.85.07,4.47,4.47,0,0,1-1.17-.37c-.45-.26.07-.31.23-.22l.88.31a2.5,2.5,0,0,0,1.34.07,4.16,4.16,0,0,0,.71-.21c1-.4.93-1.09.91-1.15a1.52,1.52,0,0,1,0-1,4.12,4.12,0,0,0,.22-.86c.33-2.16-.55-2.95-.72-3-.17.18-.39.48-.53.54s-.17-.06-.12-.17a16.06,16.06,0,0,0,1.07-2.12,4.93,4.93,0,0,0,.38-1.94c0-.53,0-1.06,0-1.58a2.22,2.22,0,0,0-.81-1.69,4.29,4.29,0,0,0-1.13-.66,6.21,6.21,0,0,1-.59-.26,1.42,1.42,0,0,1-.28-.2.33.33,0,0,1-.08-.18c0-.18.28,0,.33,0a2,2,0,0,0,.58.27,9.4,9.4,0,0,1,1.23.62.42.42,0,0,0,.31,0,1.55,1.55,0,0,0,.45-1.21,1.92,1.92,0,0,0-.2-.6l-.08.08a2,2,0,0,1-.42.39c-.11,0-.18.07-.25,0a.18.18,0,0,1,0-.21s.21-.2.29-.3a1.6,1.6,0,0,0,.28-.4A7,7,0,0,0,15,10.78a5.11,5.11,0,0,0-.27-2.45c-.12-.35-.26-.7-.39-1.06a4.1,4.1,0,0,1-.14-.5.16.16,0,0,1,.06-.2.18.18,0,0,1,.21.08,2.11,2.11,0,0,1,.16.3,1.31,1.31,0,0,1,.05.15L14.76,7a1.05,1.05,0,0,0,0-1.44,1.83,1.83,0,0,0-1-.53,2.86,2.86,0,0,0-1.42.14,1.58,1.58,0,0,0-.83.72,1.45,1.45,0,0,0-.19.61c0,.34-.12.43-.44.45l-.49,0a.61.61,0,0,0-.54.42A1.49,1.49,0,0,0,9.72,8a3.91,3.91,0,0,0,0,.48,1,1,0,0,0,.16.36,2.39,2.39,0,0,1,.13.21.42.42,0,0,1,.06.14.17.17,0,0,1,0,.18c-.06,0-.11,0-.16,0l-.12-.1-.42-.41a2.7,2.7,0,0,0-1.55-.73,3.77,3.77,0,0,0-2.29.34,2,2,0,0,0-.79.66,5.52,5.52,0,0,0-.82,2.15,1.62,1.62,0,0,0,.11,1c.1.23.06.29-.17.38s-.17,0-.26.08-.38.15-.56.25a1.49,1.49,0,0,0-.68.92.46.46,0,0,0,0,.38l.12.27a1,1,0,0,1,.17.58.21.21,0,0,1-.12.2c-.17.05-.36-.59-.42-.81s-.18-.26-.38-.19-.79.41-.87.3,0-.43.3-.52A2,2,0,0,1,1.68,14c.32,0,.36,0,.41-.35a1.46,1.46,0,0,1,.36-.75,2.5,2.5,0,0,1,1.22-.63S3.6,12,3.58,11.9a3.2,3.2,0,0,1,.13-1.34,6.75,6.75,0,0,1,.73-1.65A2.67,2.67,0,0,1,5.71,8a5.46,5.46,0,0,1,1.75-.25,3.36,3.36,0,0,1,1.71.52l.24.17a4.23,4.23,0,0,1,.06-1.09,1.14,1.14,0,0,1,1.11-.85l.28,0c0-.07,0-.14,0-.2a2.07,2.07,0,0,1,1.66-1.61A4.66,4.66,0,0,1,14.81,5a1,1,0,0,0-.28-.68,3.44,3.44,0,0,0-.66-.51,2.39,2.39,0,0,1-.67-.48c-.06-.08,0-.15.08-.15a1,1,0,0,1,.24,0,6.68,6.68,0,0,1,1.05.65c0-.22.13-.78.17-1a1.92,1.92,0,0,0,0-.63,1.61,1.61,0,0,0-.35-.86A2.33,2.33,0,0,0,13.8.92c0,.69-.22.51-.24.48s0-.11-.06-.16a1.18,1.18,0,0,0-.78-.71,2.21,2.21,0,0,0-1.37,0,3.49,3.49,0,0,0-1.4.83c-.19.18-.4.42-.59.6a3.39,3.39,0,0,1-.48.42l1.56,1.08A2,2,0,0,1,11,2.91a1.53,1.53,0,0,1,.74-.26c.07,0,.35,0,.25.16a.47.47,0,0,1-.15.13,2.1,2.1,0,0,1-.26.13l-.33.17a1.5,1.5,0,0,0-.8,1.25,3.54,3.54,0,0,1-.08.45c0,.1-.06.27-.17.24S10,5,10,4.9a1.75,1.75,0,0,1,.08-.51l.08-.28a.32.32,0,0,0,0-.3,3.22,3.22,0,0,0-.24-.28.12.12,0,0,0-.16,0A1.85,1.85,0,0,0,9,4.08a1.11,1.11,0,0,0-.14,1c.07.2.15.32.23.51s.14.23.19.34.07.2,0,.26A.24.24,0,0,1,9,6.2,1,1,0,0,1,8.82,6a1.26,1.26,0,0,0-.88-.49c-.12,0-.57.07-.61.07s-.21-.12-.18-.23.3-.25.52-.25a4.47,4.47,0,0,1,.48,0c.1,0,.22,0,.24-.1a6.2,6.2,0,0,0,.2-.77,1.38,1.38,0,0,1,.92-1l0,0a1.07,1.07,0,0,0-.16-.14A3.27,3.27,0,0,0,8,2.43a3.91,3.91,0,0,0-1.92.09A2.09,2.09,0,0,0,4.63,4c-.09.28-.14.57-.21.85,0,.09,0,.18-.06.26l1.24.13s0-.06,0-.09,0-.25,0-.37a1.09,1.09,0,0,1,.88-.85,2.15,2.15,0,0,1,.91-.05l.18,0a.18.18,0,0,1,.13.19q0,.12-.15.15a1.62,1.62,0,0,1-.31,0l-.45,0A1,1,0,0,0,6,4.81a1,1,0,0,0-.09.24A.35.35,0,0,0,6,5.39l.31.29.62.53a.51.51,0,0,1,.19.35.12.12,0,0,1,0,.1S7,6.7,7,6.67a1.94,1.94,0,0,1-.31-.26A5.09,5.09,0,0,0,6,5.84a2.21,2.21,0,0,0-1-.37,1.89,1.89,0,0,0-1.12.27,2,2,0,0,0-1.12.91,5.25,5.25,0,0,0-.68,1.41A3,3,0,0,0,2,9.39c0,.08.15.14.91-.08.18,0,.66,0,.59.38,0,.07,0,.09-.17.12S3.09,9.76,3,9.76a1.08,1.08,0,0,0-1.06.89,1.55,1.55,0,0,0,0,.43c0,.17.05.33.07.49s0,.27-.21.35a1.89,1.89,0,0,0-.88.65,2.39,2.39,0,0,0-.54,1.58,2.71,2.71,0,0,0,.41,1.36,2.07,2.07,0,0,1,.15.25.21.21,0,0,0,.23.12l.25-.07a1.22,1.22,0,0,0,.24-.1,1.11,1.11,0,0,1,.51-.1c.2,0,.41.06.54-.09s.33-.64.49-.85.36-.44.58-.7a2.21,2.21,0,0,1,1.66-.62.16.16,0,0,1,.12.17c0,.07-.17.14-.26.14a5.08,5.08,0,0,0-.74.14,2,2,0,0,0-.8.61c-.23.32-.31.42-.5.73a3.12,3.12,0,0,0-.19.57c0,.19-.1.27-.29.26a1.33,1.33,0,0,1-.34-.05,1,1,0,0,0-.51,0,3.23,3.23,0,0,0-1.08.58l-.18.2a1,1,0,0,0-.23,1A2.66,2.66,0,0,0,.85,18.8a1.86,1.86,0,0,0,.27.29c.12.1.16.08.25,0l.19-.27a.78.78,0,0,1,.36-.29.22.22,0,0,0,.17-.2,2.38,2.38,0,0,1,.06-.37,2.15,2.15,0,0,1,.15-.38,6.33,6.33,0,0,1,.39-.61c.11-.17.51-.52.7-.35s-.13.42-.32.61a3,3,0,0,0-.65,1.15,2.39,2.39,0,0,0,.26,1.44,2,2,0,0,0,.48.67c.09.09.25.18.22.3s-.46,0-.57-.16a3.3,3.3,0,0,1-.54-.95c-.06-.18-.11-.38-.17-.57s0-.1,0-.16A1.45,1.45,0,0,0,1.42,20a2.16,2.16,0,0,0,.13,1.07,1.56,1.56,0,0,0,.48.65c.12.1.16.09.26,0s.19-.23.28-.32.25-.2.34,0-.17.29-.23.35a2,2,0,0,0-.32.54,3.64,3.64,0,0,0-.1,2c.06.78,1.1,2.66,1.83,2.59.11,0,.31-.09.35-.09s.17.12.07.26-.16.38.29.94a2.08,2.08,0,0,0,1.94.89l.52-.35s.35-.19,0,.67c0,0-.11.45.63,1.3a1.57,1.57,0,0,0,1.34.3c.61-.15.53-.43.75-.14S9.48,31.1,9.5,31.6Z"/><path id="_Path_2" data-name="&lt;Path&gt;" class="cls-3" d="M10.67,19.11c-.15,0-.29,0-.44,0a1.55,1.55,0,0,0-1.58,1.18,1.18,1.18,0,0,0,.29,1l.12.12a2.85,2.85,0,0,0-.52.92,2,2,0,0,0,.06.75s-.49,0-.74,0a2.74,2.74,0,0,0-1.11.35.45.45,0,0,0-.15.64l.1.15L7,24a1.56,1.56,0,0,1,.81-.45,1.29,1.29,0,0,1,1,.18,2.45,2.45,0,0,1,.78.82c.15.25.28.51.42.77a5.73,5.73,0,0,0,.48.79,2.09,2.09,0,0,0,1.31.76l.28,0a.64.64,0,0,0,.05.44,1.42,1.42,0,0,0,.45.55c.05,0,.12.08.18,0s0-.23-.06-.33a1.81,1.81,0,0,1-.23-.69l.32,0a1.32,1.32,0,0,0,.28,0,.24.24,0,0,0,.21-.14c0-.06,0-.17-.16-.15l-.3,0a3.47,3.47,0,0,1-1.24-.12,1.76,1.76,0,0,1-.88-.64A5.83,5.83,0,0,1,10.2,25L10,24.65A2.72,2.72,0,0,0,9.61,24c-.1-.11-.19-.22-.3-.32a1.42,1.42,0,0,1-.4-1,1.32,1.32,0,0,1,.22-.89c0-.08.19-.19.24-.27s0-.29,0-.44-.08-.16-.13-.24a.89.89,0,0,1,.27-1.19,1.23,1.23,0,0,1,1.4-.08,4.19,4.19,0,0,0,.26.33c.17.19.48.39.58.22s-.12-.27-.16-.31-.22-.23-.32-.35a1.07,1.07,0,0,1-.22-.68c0-.19,0-.38,0-.58a1.16,1.16,0,0,0,.68-.18,1.39,1.39,0,0,0,.47-.62,4.47,4.47,0,0,0,.46.19,1.74,1.74,0,0,0,.82.06.92.92,0,0,0,.81-.8s0-.42-.29-.17-.43.47-.51.54a.69.69,0,0,1-.81,0l-.25-.18a1,1,0,0,0-.17-.1.22.22,0,0,0-.31,0,1.88,1.88,0,0,0-.16.23,4.08,4.08,0,0,1-.25.33.76.76,0,0,1-.85.23,1.67,1.67,0,0,1-.89-.66,2.18,2.18,0,0,1-.39-1.82,5.81,5.81,0,0,1,.37-.93c.05-.14,0-.27-.11-.26s-.32.22-.4.42a2.51,2.51,0,0,0-.17.92c0,.28,0,.32-.26.38a2.71,2.71,0,0,1-2-.51c-.17-.12-.28-.06-.38.13a3.42,3.42,0,0,1-.29.73,1,1,0,0,1-.74.41l-.5.05a.12.12,0,1,0,0,.23,2.26,2.26,0,0,0,.45,0,3.69,3.69,0,0,0,.45-.11,1.5,1.5,0,0,0,.87-.92,1.09,1.09,0,0,1,.05-.14,9.17,9.17,0,0,0,1.07.42,2,2,0,0,0,1,0L9,16.12a2.26,2.26,0,0,0,1.71,2.08Z"/><path id="_Path_3" data-name="&lt;Path&gt;" class="cls-3" d="M5.21,19a2.78,2.78,0,0,0-.56,1.47,3.83,3.83,0,0,0,0,1.13c0,.12-.15.41-.53.61a1.32,1.32,0,0,1-.67.21c-.1,0-.21,0-.31,0a.19.19,0,0,0-.19.17c.11.35,1.38.06,1.8-.58a5.77,5.77,0,0,0,.49,1.32c.1.18.11.15.25.4a.45.45,0,0,1,0,.32,9.34,9.34,0,0,0-.47.86.35.35,0,0,1-.2.14,1.48,1.48,0,0,1-.94-.24l-.26-.16c-.1-.05-.19-.06-.25,0s.05.3.13.37a2.33,2.33,0,0,0,.65.29c.22.05.51.08.75.12v.26c0,.2,0,.27,0,.46a1.27,1.27,0,0,0,.6.9c.08.06.26.17.33.08s-.22-.31-.25-.34c-.32-.26-.34-.52-.35-1a2.11,2.11,0,0,1,.27-1.14c.2-.37.24-.56.36-.46a2.91,2.91,0,0,1,.2.27l.25.33a3.55,3.55,0,0,1,.23.31.52.52,0,0,1,0,.44,2.87,2.87,0,0,0-.09,1,2.63,2.63,0,0,0,.14.83c.09.22.3.11.29-.06A1.49,1.49,0,0,0,6.77,27c0-.22,0-.43-.07-.69a.92.92,0,0,1,.11-.56L7,25.4a.5.5,0,0,0-.17-.63,2.4,2.4,0,0,1-.65-.5,4.88,4.88,0,0,1-1.24-2.73,3.42,3.42,0,0,1,2.11-3.62l.33-.14c.07,0,.14-.08.13-.18s-.1-.12-.22-.11a1.1,1.1,0,0,0-.26.06,2.82,2.82,0,0,0-1.39,1c-.19.26-.24.26-.51.1a1.14,1.14,0,0,1-.47-.5,3.26,3.26,0,0,0-.24-.4.54.54,0,0,0-.15-.15c-.08-.06-.17,0-.18.09a.6.6,0,0,0,0,.23A1.46,1.46,0,0,0,5.1,19Z"/><path id="_Path_4" data-name="&lt;Path&gt;" class="cls-3" d="M11.72,10.1A4.87,4.87,0,0,0,9.79,10a3.11,3.11,0,0,0-1.71.75A1.27,1.27,0,0,0,7,10.43a2.39,2.39,0,0,0-.46.12,1.06,1.06,0,0,0-.71,1.24c.07.42.16.83.25,1.25a1.13,1.13,0,0,0,.21.49l.12.16a.26.26,0,0,0,.11-.3c-.06-.23-.11-.46-.18-.68a4.81,4.81,0,0,1-.19-.77.9.9,0,0,1,.71-1,1.47,1.47,0,0,1,1.2.25.17.17,0,0,0,.22,0,.4.4,0,0,0,.12-.1,2.19,2.19,0,0,1,1.07-.64,3.32,3.32,0,0,1,2.4.11,2.33,2.33,0,0,1,.82.57,1.21,1.21,0,0,0,.16.16.42.42,0,0,0,.14.09.15.15,0,0,0,.18-.06c0-.06,0-.17,0-.22a1.66,1.66,0,0,0-.27-.26,6.34,6.34,0,0,0-.6-.41.35.35,0,0,1-.21-.33c0-.1,0-.2,0-.3S12,9,12.58,9a.72.72,0,0,0,.27-.11c.09-.09.06-.17,0-.23a.33.33,0,0,0-.14,0,1.1,1.1,0,0,0-.64.15.69.69,0,0,0-.28.4,1.77,1.77,0,0,0-.05.65Z"/><path id="_Path_5" data-name="&lt;Path&gt;" class="cls-3" d="M11.39,21.25a1.43,1.43,0,0,1,.27.09.74.74,0,0,1,.13.21,5.73,5.73,0,0,1,.13.7,2.12,2.12,0,0,1-.23,1.26.41.41,0,0,1-.45.25.91.91,0,0,0-.33,0,.4.4,0,0,0-.31.54c.08.05.21,0,.32,0a.71.71,0,0,1,.63.12c.17.11.33.24.49.36l.34.24a.38.38,0,0,0,.29.06c.18-.06.12-.17.08-.2a1.37,1.37,0,0,0-.2-.13,1.16,1.16,0,0,1-.38-.35c-.09-.12-.15-.21-.24-.32s-.13-.18-.06-.3L12,23.6a1.8,1.8,0,0,0,.33-1,2.17,2.17,0,0,0-.22-1.12.58.58,0,0,1-.05-.11h.35a1.38,1.38,0,0,0,.89-.32l.32-.27a1,1,0,0,0,.15-.2s.06-.11,0-.15a.27.27,0,0,0-.15-.05.37.37,0,0,0-.14.07l-.28.26a1.68,1.68,0,0,1-.48.32.85.85,0,0,1-.42.07c-.3,0-.55-.09-.86-.12C10.91,20.94,11.19,21.25,11.39,21.25Z"/><path id="_Path_6" data-name="&lt;Path&gt;" class="cls-3" d="M8.19,13.26c.13.08.2,0,.62-.3a2.23,2.23,0,0,1,1.86-.52,2.07,2.07,0,0,0-.25.83,2.38,2.38,0,0,0,0,.46c0,.24.11.39.32.47s.24,0,.22-.16-.1-.18-.15-.38a1.08,1.08,0,0,1,.15-.9c.07-.1.18-.1.3-.08l.44.05a.59.59,0,0,0,.51-.22.86.86,0,0,1,.5-.29c.13,0,.51-.11.56-.26s-.15-.19-.27-.17a2.5,2.5,0,0,0-.45.12c-.21.08-.43.21-.63.31a.54.54,0,0,1-.61,0,1.89,1.89,0,0,0-.83-.21,3.84,3.84,0,0,0-1,.14,2.48,2.48,0,0,0-1.11.58C8.27,12.88,8.05,13,8.19,13.26Z"/><path id="_Path_7" data-name="&lt;Path&gt;" class="cls-3" d="M10,26.86l-.21,0a3.81,3.81,0,0,0-.47.07.89.89,0,0,0-.54.33.46.46,0,0,1-.47.18,1.14,1.14,0,0,0-.58,0,.45.45,0,0,0-.31.52c.06,0,.12,0,.17,0a3.17,3.17,0,0,1,.86-.15c0,.06,0,.13,0,.19a2.27,2.27,0,0,0,0,.82,1,1,0,0,0,.12.33,1.59,1.59,0,0,0,.48.55,1.48,1.48,0,0,0,.31.15.6.6,0,0,0,.19,0,.87.87,0,0,0-.2-.31c-.08-.1-.17-.19-.24-.29a1.58,1.58,0,0,1-.31-1.24.73.73,0,0,1,.3-.5,2.74,2.74,0,0,1,.76-.39.33.33,0,0,1,.36.08,2,2,0,0,0,.21.2.61.61,0,0,0,.14.1s.11,0,.13,0a.17.17,0,0,0,0-.14.56.56,0,0,0-.07-.16,4,4,0,0,0-.23-.34,1,1,0,0,1-.18-.35,1.83,1.83,0,0,0-.11-.33A.87.87,0,0,0,10,26c-.08-.06-.14,0-.14.08a.87.87,0,0,0,0,.23C9.88,26.5,9.92,26.67,10,26.86Z"/></g></g></g><path id="_Compound_Path_2" data-name="&lt;Compound Path&gt;" class="cls-4" d="M19.91,18.77a1.38,1.38,0,0,0-2.16-.37,2,2,0,0,0-1.44-.66,2,2,0,0,1,1.34.74,2.69,2.69,0,0,0-.79,2.77,1.75,1.75,0,0,0,.19.27,1,1,0,0,0,1.68-.32A3,3,0,0,0,18,18.67a1,1,0,0,1,1.64.37,2.78,2.78,0,0,0-.3,2.52.93.93,0,0,0,.44.39c.4.15,1,0,1-.81a5.32,5.32,0,0,0-.71-2.05s.91-1.11,2.43.48c0,0-3.68,5.71-3.65,15.52,0,0,.66-7,1.95-10.83A23.31,23.31,0,0,1,23,19.51S21.41,17.52,19.91,18.77ZM18.5,20.72a.91.91,0,0,1-.39.71.78.78,0,0,1-.91-.28,2.44,2.44,0,0,1,.69-2.39A3.2,3.2,0,0,1,18.5,20.72Zm1.91.65c0,.23-.62.57-.85-.23a2.69,2.69,0,0,1,.28-1.73A3.87,3.87,0,0,1,20.41,21.37Z"/></g><g id="_Group_9" data-name="&lt;Group&gt;"><g id="_Group_10" data-name="&lt;Group&gt;"><path class="cls-5" d="M14.28,39H10.59A1.29,1.29,0,0,1,9.3,37.39a1.31,1.31,0,0,1,1.25-1H20.78a1.51,1.51,0,0,1,1,.31,1.28,1.28,0,0,1-.39,2.21L18.71,40l-1.48.6c.07.08.14,0,.2,0H21a1.28,1.28,0,0,1,.47,2.48,1.53,1.53,0,0,1-.63.09h-10A1.67,1.67,0,0,1,9.77,43,1.28,1.28,0,0,1,10,40.78c.74-.33,1.5-.62,2.26-.93l2-.82Z"/></g><path id="_Path_8" data-name="&lt;Path&gt;" class="cls-5" d="M15.79,44.46h2.65c.21,0,.25.06.23.27A2.91,2.91,0,0,1,15,47.25a3,3,0,0,1-2.07-2.61c0-.18.09-.18.22-.18Z"/></g></g></g></g></g></g></svg>