<svg xmlns="http://www.w3.org/2000/svg" viewBox="0 0 21.88 25.02"><defs><style>.cls-1{fill:none;stroke:#fff;stroke-miterlimit:10;}.cls-2{fill:#fff;}</style></defs><title>notifications_icon</title><g id="Layer_2" data-name="Layer 2"><g id="Layer_1-2" data-name="Layer 1"><g id="_Group_" data-name="&lt;Group&gt;"><g id="_Group_2" data-name="&lt;Group&gt;"><path id="_Path_" data-name="&lt;Path&gt;" class="cls-1" d="M.59,21.29a1.56,1.56,0,0,1,.62-1.88A4.24,4.24,0,0,0,3,15.13a26.84,26.84,0,0,1,0-4.91A7.71,7.71,0,0,1,8.56,3.3l.5-.18C9.28,1.17,9.78.49,11,.5s1.72.76,1.84,2.63l.54.18a7.91,7.91,0,0,1,5.53,7.43c0,2.1,0,4.2,0,6.3a1.85,1.85,0,0,0,.42,1,9.34,9.34,0,0,0,1.37,1.37,1.65,1.65,0,0,1,.61,1.87Z"/><path id="_Path_2" data-name="&lt;Path&gt;" class="cls-2" d="M8.52,22.6h4.81a2.41,2.41,0,1,1-4.81,0Z"/></g></g></g></g></svg>