<svg xmlns="http://www.w3.org/2000/svg" viewBox="0 0 14.71 23.25"><defs><style>.cls-1{fill:none;stroke:#fff;stroke-miterlimit:10;}.cls-2{fill:#fff;}</style></defs><title>quastion_icon</title><g id="Layer_2" data-name="Layer 2"><g id="Layer_1-2" data-name="Layer 1"><g id="_Group_" data-name="&lt;Group&gt;"><g id="_Group_2" data-name="&lt;Group&gt;"><path id="_Compound_Path_" data-name="&lt;Compound Path&gt;" class="cls-1" d="M7.53,2.31a4,4,0,0,1,2.79,1,3.34,3.34,0,0,1,1.12,2.54,2.92,2.92,0,0,1-.39,1.48,4.51,4.51,0,0,1-.84,1.11c-.29.29-.76.73-1.42,1.31a20,20,0,0,0-1.7,1.62,4.73,4.73,0,0,0-.91,1.42,4.86,4.86,0,0,0-.34,1.93,1.41,1.41,0,0,0,.32,1,1.15,1.15,0,0,0,.85.32c.56,0,1-.17,1.11-1,.12-.53.21-.89.27-1.09a4.28,4.28,0,0,1,.28-.72,4.18,4.18,0,0,1,.55-.78,12.09,12.09,0,0,1,.88-.88c1.23-1.1,2.08-1.88,2.56-2.35a6.35,6.35,0,0,0,1.11-1.5,4,4,0,0,0,.44-1.92,4.73,4.73,0,0,0-.8-2.64A5.71,5.71,0,0,0,11.1,1.24,8.19,8.19,0,0,0,7.53.5a7.85,7.85,0,0,0-3.78.88,6.48,6.48,0,0,0-2.44,2.2A4.8,4.8,0,0,0,.5,6.12a1.19,1.19,0,0,0,.38.81,1.25,1.25,0,0,0,.94.38c.43,0,1-.13,1.28-1.21A7.39,7.39,0,0,1,4.59,3.36,3.84,3.84,0,0,1,7.53,2.31Z"/></g><path id="_Path_" data-name="&lt;Path&gt;" class="cls-2" d="M7.15,23.25a2.64,2.64,0,0,1-1.78-.67,2.32,2.32,0,0,1-.77-1.85A2.41,2.41,0,0,1,5.34,19a2.5,2.5,0,0,1,1.81-.72,2.46,2.46,0,0,1,2.5,2.5,2.33,2.33,0,0,1-.75,1.84A2.57,2.57,0,0,1,7.15,23.25Z"/></g></g></g></svg>