<svg xmlns="http://www.w3.org/2000/svg" viewBox="0 0 23.11 23.08"><defs><style>.cls-1{fill:#fad110;}.cls-2{opacity:0.1;}.cls-3{fill:#231f20;}.cls-4{fill:#333;}.cls-5{fill:#939598;opacity:0.55;}.cls-6{fill:#4e4f4f;}.cls-7{fill:#95d9f1;}.cls-8{fill:#fff;}</style></defs><title>search_icon</title><g id="Layer_2" data-name="Layer 2"><g id="Layer_1-2" data-name="Layer 1"><g id="_Group_" data-name="&lt;Group&gt;"><g id="_Group_2" data-name="&lt;Group&gt;"><g id="_Group_3" data-name="&lt;Group&gt;"><g id="_Group_4" data-name="&lt;Group&gt;"><g id="_Group_5" data-name="&lt;Group&gt;"><path id="_Compound_Path_" data-name="&lt;Compound Path&gt;" class="cls-1" d="M8.92,10.61a7.51,7.51,0,0,1,2.15-9A7.32,7.32,0,0,1,17.13.14a7.39,7.39,0,0,1,6,6.7,7.52,7.52,0,0,1-.58,3.63,7.41,7.41,0,0,1-4.66,4.11,7.55,7.55,0,0,1-3.89.13,6.81,6.81,0,0,1-2.62-1.21c-.12-.09-.2-.1-.31,0s-.49.53-.75.78a.57.57,0,0,0-.19.46A3.45,3.45,0,0,1,9,17.44c-1.54,1.5-3.06,3-4.6,4.54a5,5,0,0,1-.7.59A3,3,0,0,1,2,22.94a2,2,0,0,1-1.84-1.6A2.71,2.71,0,0,1,.89,19c.42-.44.84-.88,1.27-1.31L6,13.84a2.21,2.21,0,0,1,1-.68c.44-.08.89-.09,1.33-.14a.45.45,0,0,0,.26-.09c.35-.32.68-.66,1-1C9.42,11.48,9.13,11.06,8.92,10.61Zm6.75,2.11a5.27,5.27,0,1,0-5.21-5.24A5.26,5.26,0,0,0,15.67,12.72Z"/><g id="_Group_6" data-name="&lt;Group&gt;" class="cls-2"><path id="_Compound_Path_2" data-name="&lt;Compound Path&gt;" class="cls-3" d="M15.64,13.78A6.82,6.82,0,0,0,15.76.14C11.44.1,8.57,4,8.89,7,8.66,10.3,11.71,13.77,15.64,13.78Z"/></g></g><path id="_Path_" data-name="&lt;Path&gt;" class="cls-4" d="M8.68,12.9l-.74,0c-.29,0-.59.05-.89.1a2.31,2.31,0,0,0-1.12.72L2.06,17.57c-.38.38-.75.76-1.12,1.15l-.15.16A2.86,2.86,0,0,0,0,21.36a2.11,2.11,0,0,0,2,1.72H2a3.11,3.11,0,0,0,1.73-.4,4.57,4.57,0,0,0,.72-.6l1.75-1.73c1-.94,1.89-1.88,2.85-2.81a3.58,3.58,0,0,0,1.16-2.78c0-.06,0-.4,0-.4Z"/></g><g id="_Group_7" data-name="&lt;Group&gt;"><path id="_Path_2" data-name="&lt;Path&gt;" class="cls-5" d="M3.08,21.5a2.64,2.64,0,0,0-.65-.85,3,3,0,0,0-1-.69,0,0,0,0,1,0-.09,1.66,1.66,0,0,1,1.23.52,1.61,1.61,0,0,1,.55,1.07A.08.08,0,0,1,3.08,21.5Z"/></g><g id="_Group_8" data-name="&lt;Group&gt;"><path id="_Path_3" data-name="&lt;Path&gt;" class="cls-5" d="M3.7,20.89A3,3,0,0,0,3.05,20a2.85,2.85,0,0,0-1-.69s0-.1,0-.1a1.69,1.69,0,0,1,1.24.53,1.63,1.63,0,0,1,.55,1.06A.08.08,0,0,1,3.7,20.89Z"/></g><g id="_Group_9" data-name="&lt;Group&gt;"><path id="_Path_4" data-name="&lt;Path&gt;" class="cls-5" d="M8.44,16.06a2.64,2.64,0,0,0-.65-.85,2.81,2.81,0,0,0-1-.69.05.05,0,0,1,0-.1A1.69,1.69,0,0,1,8.05,15,1.56,1.56,0,0,1,8.59,16,.08.08,0,0,1,8.44,16.06Z"/></g><g id="_Group_10" data-name="&lt;Group&gt;"><path id="_Path_5" data-name="&lt;Path&gt;" class="cls-5" d="M9.06,15.44a2.64,2.64,0,0,0-.65-.85,2.94,2.94,0,0,0-1-.69,0,0,0,0,1,0-.09,1.68,1.68,0,0,1,1.24.52,1.6,1.6,0,0,1,.54,1.07A.08.08,0,0,1,9.06,15.44Z"/></g></g><ellipse id="_Path_6" data-name="&lt;Path&gt;" class="cls-5" cx="10.03" cy="13.05" rx="0.47" ry="0.48" transform="translate(-6.22 10.41) rotate(-43.22)"/><ellipse id="_Path_7" data-name="&lt;Path&gt;" class="cls-6" cx="10.03" cy="13.05" rx="0.27" ry="0.27" transform="translate(-6.22 10.41) rotate(-43.22)"/></g><path id="_Path_8" data-name="&lt;Path&gt;" class="cls-7" d="M10.67,7.47a5,5,0,0,0,10.06,0,5.09,5.09,0,0,0-5-5.09A5,5,0,0,0,10.67,7.47Z"/><g id="_Group_11" data-name="&lt;Group&gt;"><path id="_Path_9" data-name="&lt;Path&gt;" class="cls-8" d="M12.48,4.85a6.72,6.72,0,0,0-.38,2.63,7.17,7.17,0,0,0,.52,3,.12.12,0,0,1-.2.13,4.11,4.11,0,0,1-1.23-3.1,4,4,0,0,1,.94-2.81A.2.2,0,0,1,12.48,4.85Z"/></g></g></g></g></svg>