<svg xmlns="http://www.w3.org/2000/svg" viewBox="0 0 25.71 26.12"><defs><style>.cls-1{fill:none;stroke:#fff;stroke-miterlimit:10;}.cls-2{fill:#fff;}</style></defs><title>settings_icon</title><g id="Layer_2" data-name="Layer 2"><g id="Layer_1-2" data-name="Layer 1"><g id="_Group_" data-name="&lt;Group&gt;"><path id="_Compound_Path_" data-name="&lt;Compound Path&gt;" class="cls-1" d="M10,.5h5.52A1.86,1.86,0,0,1,15.8,1c.16,1,.28,2.05.45,3.06a.83.83,0,0,0,.37.46,14.45,14.45,0,0,0,1.53.88.93.93,0,0,0,.65.07c.87-.31,1.71-.67,2.57-1,.68-.27.84-.21,1.19.4l2.13,3.72c.4.71.38.81-.23,1.32s-1.39,1.11-2.06,1.68a.63.63,0,0,0-.24.42c0,.64,0,1.27,0,1.91a.63.63,0,0,0,.3.65c.79.53,1.57,1.08,2.35,1.63.51.36.56.55.25,1.1-.77,1.35-1.54,2.71-2.32,4.06-.29.51-.49.57-1.05.35-.87-.35-1.73-.71-2.61-1a.86.86,0,0,0-.61.06,14.45,14.45,0,0,0-1.53.88,1,1,0,0,0-.39.54c-.18.91-.31,1.84-.45,2.77a.67.67,0,0,1-.73.64c-1.64,0-3.28,0-4.92,0A.66.66,0,0,1,9.7,25c-.12-.91-.25-1.82-.42-2.73a1,1,0,0,0-.42-.57,11.54,11.54,0,0,0-1.49-.86,1,1,0,0,0-.65-.08c-.91.33-1.8.72-2.7,1.07-.51.2-.74.1-1-.37L.76,17.49c-.31-.55-.28-.72.22-1.13.72-.58,1.44-1.15,2.14-1.75a.63.63,0,0,0,.24-.42c0-.64,0-1.27,0-1.91a.72.72,0,0,0-.32-.7C2.33,11,1.6,10.48.88,9.92a.71.71,0,0,1-.21-1.1q1.11-2,2.24-3.93a.8.8,0,0,1,1.19-.4c.84.34,1.66.71,2.51,1a.92.92,0,0,0,.65-.06c.57-.3,1.11-.64,1.65-1a.59.59,0,0,0,.22-.38c.16-.92.27-1.85.44-2.77A3.23,3.23,0,0,1,10,.5Z"/></g><path id="_Path_" data-name="&lt;Path&gt;" class="cls-2" d="M8.34,13.55a4.31,4.31,0,0,0,4.42,4.07,4.33,4.33,0,0,0,4.42-4,4.31,4.31,0,0,0-4.42-4.07A4.32,4.32,0,0,0,8.34,13.55Z"/></g></g></svg>