<svg xmlns="http://www.w3.org/2000/svg" viewBox="0 0 202.81 41.48"><defs><style>.cls-1{fill:#fff;}.cls-2{fill:#fd0;}</style></defs><title>img_201thaka_txt</title><g id="Layer_2" data-name="Layer 2"><g id="Layer_1-2" data-name="Layer 1"><g id="_Group_" data-name="&lt;Group&gt;"><g id="_Group_2" data-name="&lt;Group&gt;"><path id="_Compound_Path_" data-name="&lt;Compound Path&gt;" class="cls-1" d="M13.61,29.93l-.1.23-.27,0h-.65l-.3.08L12,30.2l-1.32.12-.45-.12a2.44,2.44,0,0,1-.79.22H8.84l-.39-.14c0,.07,0,.11-.15.14a2.12,2.12,0,0,0-.57.08,1.72,1.72,0,0,1-.52.09l-.42-.17-.37.17,0,.13H6.19l-.11.21L6,32.32l.09.2,0,.23,0,.61L6,34v.18a.41.41,0,0,1,0,.21.66.66,0,0,0-.09.34L6,35l0,.34-.14.11a.67.67,0,0,0,.12.32L5.83,36v.24l-.17.25.1.6,0,.88-.15.55a.46.46,0,0,1,0,.13.3.3,0,0,1,0,.14.2.2,0,0,0,0,.15.39.39,0,0,1,0,.13,1,1,0,0,1-.11.28c-.07.14-.09.23-.07.26s0,.13.07.34a1.34,1.34,0,0,0-.1.42,3.5,3.5,0,0,0,0,.47.73.73,0,0,1-.22,0l-.12,0c-.11,0-.17-.2-.17-.61l0-.33a4.12,4.12,0,0,0,0-.51,3.74,3.74,0,0,1,0-.49L5,37.31A1.67,1.67,0,0,1,4.83,37a.25.25,0,0,1,.1-.2.34.34,0,0,1-.08-.19s0-.08.12-.12a1.13,1.13,0,0,1-.08-.28A.88.88,0,0,1,5,35.9.91.91,0,0,0,5,35.67l0-.34a2.51,2.51,0,0,1,.2-.47c-.12,0-.18-.09-.18-.28s0-.51.13-.55v-.88L5,32.73l.13-.9L5,31.19l.13-.5c-.06-.19-.15-.29-.29-.29a.28.28,0,0,0-.2.1l-.3,0a.68.68,0,0,0-.34.11l-.26,0-.25,0v.07H3.35a1.11,1.11,0,0,1-.58-.13l0,.13-.45-.13L1,30.55l-.49.14c-.37-.32-.55-.53-.55-.63a3.42,3.42,0,0,1,.08-.35H.43l1.51.3.36-.12,1,0,.94.08.63-.23H5l.18-.5.29.1.07.21.13-.06a1.36,1.36,0,0,0,.49.36l.35-.11a.76.76,0,0,1,.59.28l.12-.17.8-.16.49.05a1,1,0,0,0,.38.09H9a.93.93,0,0,1,.32-.07l.3.05a.13.13,0,0,0,.13-.07l.43-.07.48.12a.26.26,0,0,0,.3,0,1.18,1.18,0,0,1,.26-.06l.38.07,1.07,0,.47.08Z"/><path id="_Compound_Path_2" data-name="&lt;Compound Path&gt;" class="cls-1" d="M21.51,40.14a1,1,0,0,1,0,.27.43.43,0,0,1-.47.49c-.21,0-.35-.18-.43-.53l-.15-.66v-.2a1.83,1.83,0,0,0,0-.35,1.06,1.06,0,0,0-.21-.57l.14-.34-.08-.51.08-.25v-.35l0-.3-.09-.33.09-.2v-.79l0-1-.15-.68.08-.28-.19-.81v-.27l-.34-.14-.39.35a.78.78,0,0,1-.2.14L19,33l-.59.86-.24.06-.54.88v.1h-.14l-.06.19-.23.22a.88.88,0,0,0-.2.4l-.22.74-.32.42a1.34,1.34,0,0,0-.15.36l-.21.19-.09.56-.45.42,0,.6h-.08l-.15.41L14.9,40a3,3,0,0,0-.49.63l-.11,0h-.13l-.07-.11-.18-.72-.05-1.18-.06-.34.06-.43,0-.74L14,37l.14-1.81.07-.35,0-.26.11-.06,0-.15.09-.75.11-.3L14.34,33l.07-.16-.07-.12.07-.71-.11-.11.06-.14,0-.82-.13-.36h.13V30.4l-.19-.87V29.1l-.09-.2-.1-.68a4.17,4.17,0,0,0-.35-.87l.24-.35,0-.06c.17,0,.25.09.25.26l.3.27.09.25a1.25,1.25,0,0,0,.26.36l-.05.18.13.39-.13.19.19.15,0,.56,0,1.06.13.54-.08.23,0,.41-.09.34.07.53-.15.53.08.15,0,1.3,0,.2-.08.11-.09.79-.11.23.09.26-.05.12,0,.71-.21.62c.16.18.23.3.23.36l-.16.3a1.13,1.13,0,0,1,.1.51l.2-.15.08-.27.34-.69.15-.49a.44.44,0,0,0,.35-.45,2.23,2.23,0,0,0,.31-.51L16,36a1.27,1.27,0,0,1,.21-.35l0-.28-.06-.06.14-.12.05.06.34-.43a.27.27,0,0,0,.17-.26V34.5c.18,0,.28-.16.28-.39l.06,0V34l.18,0,0-.28h.14l0-.16h.15v-.14a.55.55,0,0,1,.18-.1s0,0,0,0v0l0-.19H18c.17,0,.25-.13.25-.4l.26-.21,0,.08a.82.82,0,0,0,.2-.43l.15-.06.06-.18.17,0a.53.53,0,0,1,.24-.11l.16,0,0-.09a2,2,0,0,1,.53-.24c.09,0,.21.1.35.28a.17.17,0,0,1,.15.19l.19.16a2.27,2.27,0,0,0,.35.72v1.67l-.05.87.09.21V37.1l0,.28v.54l0,.44L21,38.9c.06.05.1.26.13.63l.21.26v.26Z"/><path id="_Compound_Path_3" data-name="&lt;Compound Path&gt;" class="cls-1" d="M30,38.34a.74.74,0,0,1,.16.36,1,1,0,0,1-.2.35,2.42,2.42,0,0,0-.29.58l-.16,0-.23.44-.26,0-.57.38-.11.23-.17,0L28,41h-.3l-.07.1-.14,0a.54.54,0,0,0-.41.21l-.13-.1a.89.89,0,0,1-.36.1.61.61,0,0,1-.38-.1l-.29,0-.12-.11a1,1,0,0,1-.77-.32v-.26l-.35-.19-.08-.22a.81.81,0,0,0-.23-.27v-.16l-.24-1,0-.72.09-.41V37l.11-.38,0-.29a.44.44,0,0,0,.15-.23,1.28,1.28,0,0,1,.12-.32c0-.12-.05-.3-.08-.53l.18-.16-.18-.21a1.06,1.06,0,0,0,.14-.3l-.1-.63a1.63,1.63,0,0,1,.06-.45.36.36,0,0,0,.28.19,2.2,2.2,0,0,0,.41-.09.59.59,0,0,1,0-.14.29.29,0,0,1,.17-.26,3.82,3.82,0,0,1,.46-1,.51.51,0,0,0,.2-.43h.11l.1-.21.13-.05a.69.69,0,0,1,.22-.31,1.52,1.52,0,0,0,.57-.49l.18,0s.07-.08.16-.24l.39-.13c.06,0,.12,0,.19.13l.19-.05.11.09h.12a.43.43,0,0,0,.43.34h.06a.34.34,0,0,0,.14.22l-.1,0c.25.12.37.4.37.83l-.06.24.06.59-.1.09-.24.64-.43.53,0,.3a6.55,6.55,0,0,1-1.25.86c0,.08-.08.12-.14.12l-.17,0-.46.32H26.4l-.4.19-.18-.1a1.51,1.51,0,0,0-.44-.09,1.07,1.07,0,0,0-.32.79l-.15.17a2.17,2.17,0,0,1-.1.56l-.12.06.12.77-.12.1,0,.24,0,.3a3.38,3.38,0,0,0,.06.39c0,.22.09.34.16.38s0,.21.21.35a1.43,1.43,0,0,0,.54.29v.13l.56.08.79,0,.53-.06A2.28,2.28,0,0,1,28,40l.17-.25h.19l0-.1a1.89,1.89,0,0,0,.51-.22A.18.18,0,0,0,29,39.3a.19.19,0,0,1,.18-.12L29.2,39a.69.69,0,0,0,.58-.61A.37.37,0,0,1,30,38.34Zm-1.75-4.86c.06,0,.15-.1.28-.27l.06-.25a4.38,4.38,0,0,0,.31-.55,1.21,1.21,0,0,0,0-.3,2.39,2.39,0,0,0-.15-.63l-.43-.14-.21,0-.13,0a.23.23,0,0,0-.22.19,1.83,1.83,0,0,0-.57.15l-.06.15-.09,0h-.05a.09.09,0,0,0,0,0,.1.1,0,0,0,0,0s0,0,0,.06l0,.09,0,.1a1.12,1.12,0,0,1-.13.18l-.16.19-.3.57-.16.14a.49.49,0,0,0-.11.27,4.68,4.68,0,0,1-.57,1l.15.08.07.18.36.1a1.81,1.81,0,0,1,.64-.28l.07-.12.16,0a.25.25,0,0,0,.2-.13l.25,0,.16-.26h.14l.11-.23a.75.75,0,0,0,.53-.26Z"/><path id="_Compound_Path_4" data-name="&lt;Compound Path&gt;" class="cls-1" d="M46.7,29.28h.56a2,2,0,0,1,.34-.08c.13,0,.19.07.19.2s-.07.15-.22.15h-.08l-.3.16-.38-.12-.54.3L46,29.78a.64.64,0,0,0-.34-.09l-.26,0a1.31,1.31,0,0,1-.27.05h-.05l-.26-.05-.44.16-.19,0-.08.06-1,0-.25,0-.08.15L42.48,30l-.23.12a1.37,1.37,0,0,1-.44.05l-.29-.06a1.32,1.32,0,0,0-.41.05,6,6,0,0,1-.69.09l-.18.2-.13,0a.46.46,0,0,0-.07.29,3.24,3.24,0,0,0,.32,1l-.17.49.17.13-.17.26c.12,0,.17.09.17.23l-.1.42-.07.86.05.32.77.11.57-.15.19.1a1.27,1.27,0,0,0,.49.05.38.38,0,0,0,.32-.15l.41-.09.49.17a5,5,0,0,1,.59-.1,1.52,1.52,0,0,0,.35-.07l.26.09.34-.09.19.11a5.29,5.29,0,0,0,.57,0l.16,0,.19,0,.16,0a.26.26,0,0,0,.22-.14l.53-.06.22.06a.56.56,0,0,1,.15,0l.23.09h.11l0,.11a1.3,1.3,0,0,0-.6.25h-.3l-.19.14-.49-.06-.42.15a3.16,3.16,0,0,1-.65.14l-.34-.11-.09.11L44,34.86l-.25.13-.39,0-.3.07a2.18,2.18,0,0,1-.49.07h-.15a.73.73,0,0,0-.34.12l-.24-.16-.1,0a2.14,2.14,0,0,0-.62.22l-.4-.06-.17.06-.3-.06c-.09,0-.18.41-.26,1.22a4.19,4.19,0,0,1,0,.65.51.51,0,0,1,.09.35l-.23.67.12.26-.14.28.06.34-.08.17a.4.4,0,0,1,0,.15,4.39,4.39,0,0,1-.17.91q-.16.63-.3,1.29l-.24-.13h-.15l0-.25v-.2l.11-.11,0-.26a1.35,1.35,0,0,1,.16-.46L39.08,40v-.23l-.11-.1.17-.33L39,39.24a2.65,2.65,0,0,1,.12-.37,1.05,1.05,0,0,0,.07-.23v0l-.08-.1,0-.15L39,38l.12-.34-.06-.84.16-.83-.1-.34v-.38a.24.24,0,0,0-.17-.24l-.57.24L38,35.05l-.4.06a.24.24,0,0,1-.13,0c-.1,0-.15-.09-.15-.29a.65.65,0,0,1,.1-.41.57.57,0,0,1,.43-.12l.5,0,.63.06h.15c.17,0,.29-.12.34-.36l-.1-.28v-1l-.1,0,.08-1.16-.24-.64,0-.43-.6-.28-.49.33-.19-.27a.27.27,0,0,1-.23-.2,1,1,0,0,0,.1-.55.9.9,0,0,0,.55-.17.75.75,0,0,1,.37-.16l.59.06.41,0,1-.06.72.1.73,0a1.51,1.51,0,0,0,.18-.09l.1,0a.31.31,0,0,1,.12,0l.11,0h0l.82-.12,0,.12c0-.07.09-.1.14-.1s.15.05.24.16l.15-.06.56-.06h0l1.25.16a2.62,2.62,0,0,1,.61-.08A.49.49,0,0,1,46.7,29.28Z"/><path id="_Compound_Path_5" data-name="&lt;Compound Path&gt;" class="cls-1" d="M59,39.24l.34,0c.15,0,.23.06.23.17s-.08.2-.23.32l-.15.08-.11.12a2.54,2.54,0,0,1-.36.23l-.35.1a1.16,1.16,0,0,1-.7.13,1.64,1.64,0,0,1-.31-.09,1.08,1.08,0,0,1-.33-.14l-.7-.63-.16-.66-.21-.19v-.11a1,1,0,0,0-.14-.55l0-.51a4.34,4.34,0,0,0,.08-.45,1,1,0,0,0-.12-.47l.06-1-.24.13-.15.23-.19.13a.69.69,0,0,0-.21.25l-.19,0a.6.6,0,0,0-.24.43.67.67,0,0,0-.4.37,1.32,1.32,0,0,1-.32.49,1.24,1.24,0,0,1-.36.3.48.48,0,0,0-.2.12l-.62.75h-.06l-.5.6-.4.22-.17.27a6.08,6.08,0,0,0-.88.36l-.32-.21a.34.34,0,0,1-.15,0c-.08,0-.12,0-.12-.11s0-.1,0-.12l-.22-.13a.43.43,0,0,1,.07-.22l-.28-.27.17-.22h-.23l-.16-.4.16-.13-.2-.28c0-.35,0-.53.07-.55v-.37a1.69,1.69,0,0,1,.12-.45l-.18-.12a.74.74,0,0,0,.18-.41.87.87,0,0,0-.11-.34c.09,0,.13-.16.13-.34s0-.16,0-.28l-.09-.71.25-1.49a4.84,4.84,0,0,0-.1-.81L49.61,32q0-.33.36-.33l.31.08.16.19-.09.45,0,1.07,0,.68-.15.35.08.2L50.2,35v.28c-.05,0-.07.06-.05.13a.5.5,0,0,1,0,.14.46.46,0,0,1-.08.24l.14.19-.21.26.13.18-.06.29.06.34v.41l.12.14-.1.51a.64.64,0,0,0,.13.33l-.07.23.11.3a2.13,2.13,0,0,1,.45.41.74.74,0,0,0,.4-.21,3.71,3.71,0,0,1,.45-.37s0,0-.08,0c.23-.1.34-.22.34-.34a.89.89,0,0,0,.34-.09l0-.26.2-.08a1.26,1.26,0,0,1,.71-.41l0-.21.39-.32a.44.44,0,0,1,.45-.43l.08-.28.19-.08.28-.41h.13v-.12l.19-.11.13-.3q.26-.13.51-.24l.08-.23.16-.06v-.14l.08,0c0-.34.16-.51.37-.51l-.06-.06.39-1.18h.1V32.6h0a2.38,2.38,0,0,0,.36-.77l.38,0-.05.08.22.41-.17.79-.32.47-.22.79-.27.19V35l-.15.3,0,.34-.15.15,0,.94-.09,1.15.06.13,0,.17h.07v.32a1.67,1.67,0,0,1,.34.64l.3.07.06.19a5.2,5.2,0,0,1,.52.24l.28,0,.23.06.33-.14A2.11,2.11,0,0,0,59,39.24Z"/><path id="_Compound_Path_6" data-name="&lt;Compound Path&gt;" class="cls-1" d="M63.1,32.26l1.47.06,1.4-.06.35,0,.14,0h.77c.15,0,.22.06.22.18s-.11.24-.34.29a.3.3,0,0,0-.18,0,.4.4,0,0,0-.27.11l-.3-.06-.57,0A1.71,1.71,0,0,1,65,33l-.4-.07-.21.2h-.2V33l-.37.17h-.18l-.07.19a2.81,2.81,0,0,0-.62-.08c0,.08-.06.12-.11.12s-.06,0-.12-.08l-.3,0-.21.22-.06,1,0,.63-.06.8,0,.9.06.42v.39l.25.53v.09a.9.9,0,0,0,.43.7l.06.18.39.08.28.31.79.14,1-.24.3.1.74-.35.28,0a.41.41,0,0,1,.15.27c0,.11-.09.22-.27.35l-.16-.06-.33.28-.71.08-.24.15L65,40.22a1.67,1.67,0,0,1-.75.19l-.43-.09h-.23l-.77-.44-.36-.51-.25-.29-.39-1-.18-1,.1-.38-.18-.21.08-.24-.08-.39.22-.16-.09-.2,0-.25-.1-.28,0-.41,0-.21.1-.06v-.77c0-.19-.1-.28-.18-.28a.12.12,0,0,0-.12.08l-.24-.1-.34.08-.34-.25h-.18c-.16,0-.25-.09-.25-.28l0-.33-.14-.1.08-.19.31,0,.24,0,.35.11h.89l0-.49V31.3l-.14-.37.16-.12a1.07,1.07,0,0,0,0-.16.27.27,0,0,0-.17-.23l0-.83-.18-.26,0-.19c-.14,0-.21-.08-.21-.17l.14-.56a1.32,1.32,0,0,0,.2-.29,2.6,2.6,0,0,1,.64.36v0l-.09.21a1.17,1.17,0,0,1,.15.47v.06a.94.94,0,0,0-.06.31.21.21,0,0,0,.06.16l0,.18,0,.23-.19.3.13.53-.09.65.09.12-.13.19.17.53h.38Z"/><path id="_Compound_Path_7" data-name="&lt;Compound Path&gt;" class="cls-1" d="M78.55,39.24l.35,0c.15,0,.23.06.23.17s-.08.2-.23.32l-.16.08-.1.12a2.31,2.31,0,0,1-.37.23l-.34.1a1.19,1.19,0,0,1-.7.13,1.64,1.64,0,0,1-.31-.09,1.06,1.06,0,0,1-.34-.14l-.69-.63-.16-.66-.21-.19v-.11a1.1,1.1,0,0,0-.14-.55l0-.51a4.34,4.34,0,0,0,.08-.45.9.9,0,0,0-.13-.47l.07-1-.24.13L75,36l-.2.13a.69.69,0,0,0-.21.25l-.18,0a.6.6,0,0,0-.24.43.67.67,0,0,0-.4.37,1.32,1.32,0,0,1-.32.49,1.12,1.12,0,0,1-.37.3.44.44,0,0,0-.19.12l-.62.75h-.06l-.5.6-.4.22-.18.27a6.52,6.52,0,0,0-.87.36L70,40.07a.28.28,0,0,1-.14,0c-.08,0-.13,0-.13-.11a.29.29,0,0,1,0-.12l-.21-.13a.43.43,0,0,1,.07-.22l-.28-.27.16-.22h-.23l-.15-.4.15-.13L69,38.21c0-.35,0-.53.07-.55v-.37a2.06,2.06,0,0,1,.11-.45l-.17-.12a.72.72,0,0,0,.17-.41.82.82,0,0,0-.1-.34c.08,0,.13-.16.13-.34a1.78,1.78,0,0,0,0-.28l-.08-.71.25-1.49a6.16,6.16,0,0,0-.1-.81L69.2,32c0-.22.13-.33.37-.33l.31.08.16.19-.1.45,0,1.07,0,.68-.14.35.08.2L69.8,35v.28c-.06,0-.07.06,0,.13a.5.5,0,0,1,0,.14.4.4,0,0,1-.09.24l.15.19-.21.26.13.18-.07.29.07.34v.41l.12.14-.1.51a.7.7,0,0,0,.12.33l-.06.23.1.3a1.91,1.91,0,0,1,.45.41.77.77,0,0,0,.41-.21,3.71,3.71,0,0,1,.45-.37s0,0-.09,0c.23-.1.35-.22.35-.34a1,1,0,0,0,.34-.09l0-.26L72.1,38a1.23,1.23,0,0,1,.71-.41l0-.21.39-.32a.44.44,0,0,1,.45-.43l.08-.28.19-.08.28-.41h.12v-.12l.2-.11.13-.3q.26-.13.51-.24l.08-.23.16-.06v-.14l.08,0c0-.34.16-.51.36-.51l-.06-.06.4-1.18h.09V32.6h0s.17-.26.37-.77l.37,0,0,.08.22.41-.18.79-.31.47-.22.79-.27.19V35l-.16.3,0,.34-.15.15,0,.94L76,37.87,76,38l0,.17h.06v.32a1.76,1.76,0,0,1,.35.64l.3.07.06.19a4.13,4.13,0,0,1,.51.24l.28,0,.23.06.34-.14A1.87,1.87,0,0,0,78.55,39.24Z"/><path id="_Compound_Path_8" data-name="&lt;Compound Path&gt;" class="cls-1" d="M88.07,31.91l-.06.26-.63.09-.4.3-.27,0-.35.21L86,33a1.41,1.41,0,0,1-.41.28v.1l-.31.16-.22.34h-.23l-.11.33-.24.16a.57.57,0,0,0-.23.23l-.21.39a.63.63,0,0,0-.28.57l-.11,0,0,.13-.16.11-.14.36a1.06,1.06,0,0,0-.23.49l-.2.09v.44a.55.55,0,0,0-.1.23l0,.08-.21.08.06.17a3.54,3.54,0,0,1-.32.77l.1.27-.2.34a2.86,2.86,0,0,1,0,.33l0,.34.09.37a.5.5,0,0,0,.09.13l.16.16a1.28,1.28,0,0,1-.26.36l-.28-.1,0,.18-.47-.08v-.28l-.06-.19.06-.34-.06-.15,0-.73,0-.49q-.15,0-.15-.12a.47.47,0,0,1,.15-.26v-.32a2.93,2.93,0,0,0,0-.36l.08-.11-.08-.4.06-.32-.06-.2.06-.58-.11-.16.07-.2-.13-.43,0-.33a2.31,2.31,0,0,0,0-.39l.06-.1-.12-.73-.16-.11.16-.36a1.15,1.15,0,0,1-.22-.71v-.29a.62.62,0,0,1-.12-.2,1.06,1.06,0,0,1,.53-.34l.15,0a1.19,1.19,0,0,0,.23.5l0,.53.21,1.62a.38.38,0,0,1-.13.28l.11.45-.06.32.06.34,0,.27.15.33-.09.06.07.49.17,0,.07-.42a1.67,1.67,0,0,1,.25-.37.71.71,0,0,0,.27-.53v-.13l.14-.06s0,0,.05-.08,0-.08.07-.08h.07l.12-.41.32-.22,0-.13h.14l-.06-.24.32-.14,0-.26.31,0a1,1,0,0,0,.31-.4l.2,0a1.67,1.67,0,0,1,.38-.39.13.13,0,0,0,.11-.06l.34-.19.08-.16.19-.1a1.85,1.85,0,0,1,.75-.41h.09a.44.44,0,0,0,.3-.1l.18.06a.45.45,0,0,1,.24-.1C87.92,31.84,88.06,31.88,88.07,31.91Z"/><path id="_Compound_Path_9" data-name="&lt;Compound Path&gt;" class="cls-1" d="M94.49,38.34a.74.74,0,0,1,.16.36,1.1,1.1,0,0,1-.19.35,2.13,2.13,0,0,0-.3.58l-.16,0-.23.44-.26,0-.57.38-.11.23-.17,0-.19.22h-.3l-.07.1L92,41a.54.54,0,0,0-.41.21l-.13-.1a.89.89,0,0,1-.36.1.61.61,0,0,1-.38-.1l-.28,0-.13-.11a1,1,0,0,1-.77-.32v-.26l-.34-.19-.09-.22a.81.81,0,0,0-.23-.27v-.16l-.24-1,0-.72.09-.41V37l.11-.38,0-.29a.39.39,0,0,0,.15-.23,1.28,1.28,0,0,1,.12-.32c0-.12,0-.3-.08-.53l.19-.16L89,34.92a.82.82,0,0,0,.14-.3L89,34a1.63,1.63,0,0,1,.06-.45.38.38,0,0,0,.28.19,2.2,2.2,0,0,0,.41-.09.59.59,0,0,1,0-.14.31.31,0,0,1,.17-.26,3.54,3.54,0,0,1,.47-1,.53.53,0,0,0,.19-.43h.11l.1-.21.13-.05a.78.78,0,0,1,.22-.31,1.45,1.45,0,0,0,.57-.49l.18,0s.07-.08.16-.24l.39-.13c.06,0,.12,0,.19.13l.19-.05.11.09h.12a.43.43,0,0,0,.43.34h.06a.34.34,0,0,0,.14.22l-.09,0c.24.12.36.4.36.83l-.06.24.06.59-.1.09-.24.64-.43.53,0,.3a6.55,6.55,0,0,1-1.25.86c0,.08-.08.12-.14.12l-.16,0-.47.32h-.29l-.4.19-.18-.1a1.51,1.51,0,0,0-.44-.09,1.07,1.07,0,0,0-.32.79l-.15.17a2.17,2.17,0,0,1-.1.56l-.11.06.11.77-.11.1,0,.24,0,.3a2.54,2.54,0,0,0,0,.39c0,.22.09.34.16.38s0,.21.21.35a1.43,1.43,0,0,0,.54.29v.13l.56.08.79,0,.53-.06a2.28,2.28,0,0,1,.47-.28l.17-.25h.19l0-.1a1.92,1.92,0,0,0,.5-.22.18.18,0,0,0,0-.11.2.2,0,0,1,.19-.12l.06-.14a.68.68,0,0,0,.58-.61A.37.37,0,0,1,94.49,38.34Zm-1.75-4.86c.06,0,.15-.1.28-.27l.06-.25a4.38,4.38,0,0,0,.31-.55.87.87,0,0,0,0-.3,2.39,2.39,0,0,0-.15-.63l-.42-.14-.22,0-.13,0a.23.23,0,0,0-.22.19,1.83,1.83,0,0,0-.57.15l-.06.15-.09,0h0a.09.09,0,0,0,0,0l0,0s0,0,0,.06l0,.09,0,.1a1.12,1.12,0,0,1-.13.18l-.16.19-.3.57-.16.14a.49.49,0,0,0-.11.27,4.93,4.93,0,0,1-.56,1l.14.08.07.18.36.1a1.78,1.78,0,0,1,.65-.28l.06-.12.16,0a.25.25,0,0,0,.2-.13l.25,0,.16-.26h.14l.11-.23a.75.75,0,0,0,.53-.26Z"/><path id="_Compound_Path_10" data-name="&lt;Compound Path&gt;" class="cls-1" d="M113.68,35.86l.17.26.73.58a1.24,1.24,0,0,1,.32,1l0,.32a1.07,1.07,0,0,1-.26.53A1.41,1.41,0,0,1,114,39a.27.27,0,0,1-.26.14h-.07a1,1,0,0,1-.75.29,1,1,0,0,1-.37.3l-.45,0-.39.34-.17-.11-.28.09c-.3,0-.46,0-.48.09l-.67-.07a1.81,1.81,0,0,1-.64.19l-.58,0-.41.19-.23,0a.15.15,0,0,0-.12-.07.22.22,0,0,0-.18.11h-.68l-.2-.13-.14.13-1,0-.49-.09a.91.91,0,0,1-.35.11,1.16,1.16,0,0,1-.6-.27l-.36.14-.11-.12h-.23a2.36,2.36,0,0,1-.75-.13,1.81,1.81,0,0,0-.45-.13.24.24,0,0,0-.12,0l-.75-.53-.47-.13a1.79,1.79,0,0,1-.49-1,3.46,3.46,0,0,1,.14-.6l.16,0c.13,0,.21-.09.25-.25l.32,0-.14-.08.23,0c.11-.14.2-.21.26-.21s.23.13.23.39a.92.92,0,0,0-.49.29c0,.06-.06.12-.17.18l-.24.16.06.13v.37a2.12,2.12,0,0,1,.65.56l.26,0a1.29,1.29,0,0,1,.42.21l.38,0,0-.13.57,0-.12.09.47.08.06.1h1v.08a.44.44,0,0,1,.29-.12.63.63,0,0,1,.21,0,2,2,0,0,0,.46.07l0,.12.29,0h.33l.21.09-.09-.09a1.38,1.38,0,0,1,.48-.12.29.29,0,0,1,.21.1.79.79,0,0,1,.45-.12,1.68,1.68,0,0,1,.51.08.47.47,0,0,1,.3-.1.6.6,0,0,1,.32.1l.76-.22.16-.21.66.09.53-.13-.08,0a2.57,2.57,0,0,1,.73-.06s.07-.08.1-.08l.15,0,.54-.23.1,0v-.11h.37v0c0-.13.11-.2.33-.2h.16l.08-.08-.06-.08c.11-.12.19-.18.25-.18s.24-.06.24-.17a1.35,1.35,0,0,0,.27-.55c0-.33-.55-.73-1.64-1.18l-.94-.38a3.45,3.45,0,0,1-1-.25,1.08,1.08,0,0,0-.72-.24,1.36,1.36,0,0,0-.4,0l-.13-.17-.3.13-.24-.27-.34.08L108,35h-.39l-.25-.19H107l-.15-.22,0,.1h-.24l-.3-.35A1.82,1.82,0,0,1,105,34l-.23.06-.15-.35-.34-.36a4.29,4.29,0,0,0-.43-.86l.08-.63.35-.45a.56.56,0,0,0,.29-.39,1.32,1.32,0,0,1,.5-.22.16.16,0,0,0,.13.08l.2-.3.1.14,0-.14.78-.27-.23-.06.21,0c.24,0,.39-.07.45-.23a4.52,4.52,0,0,0,1.09-.14l-.1-.09a.29.29,0,0,1,.19-.05.3.3,0,0,1,.2.05l-.06-.07.18,0a.25.25,0,0,0,.27-.18h.11l.25,0s.07,0,.07,0v.08a.48.48,0,0,1,.28-.1h.12l1.27-.13.06.13v-.15l.28-.18a.42.42,0,0,0,.43.22h.1a1.51,1.51,0,0,1,.69.11l-.16,0a4.28,4.28,0,0,1,1.17.24c.51.16.76.43.76.8s-.18.43-.54.49l-.08-.19-.7-.24h-.31l-.23-.29-.45.06-.15-.14-.19.22-.3-.22-.65.08-.71-.2-.2.12a2.19,2.19,0,0,0-.81.12l-.15,0a.38.38,0,0,0-.29.17l-.5,0-1.33.49L106,31l-.49.39h-.28l-.21.3-.54.39c-.06,0-.09,0-.09.08v0a3.49,3.49,0,0,1,.13.58l.22.1.1.22.33.08.23.17a4.3,4.3,0,0,0,.6.26l0,.1h.49l.64.43.26-.08a1.8,1.8,0,0,1,.5.25.89.89,0,0,0,.37.18.42.42,0,0,0,.23-.09v.15l.73.06.22.14v-.08h.15l.32.22a1.58,1.58,0,0,1,.78.13,1.47,1.47,0,0,1,.32,0,.66.66,0,0,1,.48.19c.13.13.23.19.3.19h0l.23-.06.15.06h.3l.58.43Z"/><path id="_Compound_Path_11" data-name="&lt;Compound Path&gt;" class="cls-1" d="M119.13,32.26l1.47.06,1.41-.06.34,0,.15,0h.77c.15,0,.22.06.22.18s-.11.24-.34.29a.3.3,0,0,0-.18,0,.4.4,0,0,0-.27.11l-.3-.06-.58,0A1.64,1.64,0,0,1,121,33l-.4-.07-.21.2h-.2V33l-.37.17h-.18l-.07.19a2.91,2.91,0,0,0-.62-.08c0,.08-.06.12-.11.12a.26.26,0,0,1-.12-.08l-.3,0-.21.22-.06,1,0,.63-.07.8,0,.9.06.42v.39l.25.53v.09a.9.9,0,0,0,.43.7l.06.18.38.08.29.31.79.14,1-.24.3.1.74-.35.28,0a.41.41,0,0,1,.15.27c0,.11-.09.22-.27.35l-.16-.06-.33.28-.71.08-.24.15-.25-.15a1.67,1.67,0,0,1-.75.19l-.43-.09h-.23l-.77-.44-.36-.51-.25-.29-.39-1-.18-1,.1-.38-.18-.21.08-.24-.08-.39.22-.16-.1-.2.06-.25-.1-.28,0-.41,0-.21.1-.06v-.77c0-.19-.1-.28-.18-.28a.15.15,0,0,0-.13.08l-.23-.1-.34.08-.34-.25h-.18c-.17,0-.25-.09-.25-.28l0-.33-.14-.1.08-.19.31,0,.24,0,.34.11h.9l0-.49V31.3l-.14-.37.16-.12a1.07,1.07,0,0,0,0-.16.27.27,0,0,0-.17-.23l0-.83-.18-.26,0-.19c-.13,0-.2-.08-.2-.17l.14-.56a1.32,1.32,0,0,0,.2-.29,2.89,2.89,0,0,1,.64.36v0l-.09.21a1.17,1.17,0,0,1,.15.47v.06a.94.94,0,0,0-.06.31.21.21,0,0,0,.06.16l0,.18,0,.23-.19.3.13.53-.09.65.09.12-.13.19.17.53h.38Z"/><path id="_Compound_Path_12" data-name="&lt;Compound Path&gt;" class="cls-1" d="M132.27,40.07l-.3.15-.07.19a1.73,1.73,0,0,0-.32.11l-.1-.07-.16.07-.33-.4v-.47l-.16-.14,0-.66-.12-1.36.08-.45-.15-.24.19-.1-.12-.19,0-.2.1-.08,0-.26H131v-.43l0-.21c-.06,0-.12-.08-.2-.2l-.33.16a.78.78,0,0,1-.29.34l0,.23L130,36l0,.3-.14.1v.16a1,1,0,0,0-.31.38l-.14.09-.32.57-.52.51-.16.28-.45.47-.12.25-.61.43-.69.81-.23.07a.71.71,0,0,0-.32.22h-.06c-.12,0-.22-.12-.28-.35-.54-.21-.82-.51-.85-.89l.17-.11a2.67,2.67,0,0,1-.17-.83l-.11-.09.07-.11a.44.44,0,0,0,.06-.21c0-.11,0-.25.06-.43l.15-.79a.46.46,0,0,1,0-.14.61.61,0,0,1,.06-.25.85.85,0,0,1,0-.22.69.69,0,0,1,0-.22l.09,0a.79.79,0,0,0,.17-.41.21.21,0,0,0-.07-.17.21.21,0,0,1-.06-.08s0-.08.11-.1c-.1,0-.15-.07-.15-.14s.07-.1.21-.1V34.9a.8.8,0,0,1,.13-.42,1.13,1.13,0,0,0,.15-.26l-.15,0,.28-.44v-.11a1.13,1.13,0,0,1,.29-.77l0-.39.1-.06a.32.32,0,0,1-.08-.21s0-.06.14-.06v-.34c.07,0,.1-.06.1-.11a.18.18,0,0,0,0-.11,4.44,4.44,0,0,1,.29-.35,1.5,1.5,0,0,0,.31-.41h.06q.24,0,.24-.12s0-.06-.06-.1c.28,0,.43-.06.44-.17l.39-.2,1.1.1v.08l.9.19H130c.14,0,.2.06.2.18l.11-.05a.22.22,0,0,0,.24.19l.1,0,.19.19.45.11v.19A2.77,2.77,0,0,1,132,31v.34h-.11l.21.1,0,.05.17.54-.19.21-.08.35a1.79,1.79,0,0,1-.2.44l.13.27-.12.17a.9.9,0,0,0-.1.48.1.1,0,0,1,.07.1l0,.18,0,.14-.07.23.05.2-.13.15,0,.47-.06.06.06.09-.06.06a.2.2,0,0,1,0,.09.38.38,0,0,1-.06.19l.06.13-.1.19c-.06,0-.09.14-.09.3l.09.27-.2.26a.61.61,0,0,0,.2.28,2,2,0,0,0-.26.83l.17,0,0,.11a.28.28,0,0,1,0,.15,1,1,0,0,1-.15.43h.13l.06.32.43,0,.15.27s-.07.06-.07.08.07.12.21.21h0s0,0,0,0S132.15,40,132.27,40.07Zm-1.1-7.67-.12-.38-.35-.11-.59-.53a.4.4,0,0,0-.22-.08.54.54,0,0,0-.17,0l-.1-.11h-.34l-.11-.13-.24.09-.1-.09-.18,0-.33,0a2,2,0,0,0-.75.24l0,.08-.19.06,0,.09-.24,0v.12a1.83,1.83,0,0,0-.49.68,7.26,7.26,0,0,1-.39,1.1l.17.08-.27.24.08.17a1.15,1.15,0,0,0-.18.65v.12l-.16.23v.36a.79.79,0,0,0-.19.39l-.08.08v.39l-.07.1a2.5,2.5,0,0,1-.09.57l.12.26a1,1,0,0,0-.31.27l.09.16-.13.17.17.43-.19.26,0,.51-.06.24.1.06,0,.15a.67.67,0,0,1,.3.24l.49-.12a.5.5,0,0,1,.47-.33l0-.16.33-.09s0,0,.05-.12a.42.42,0,0,1,.19-.22h0s.06,0,.06-.08l.39-.45h-.08l.22-.21a1,1,0,0,1,.35-.19l.15-.41q.41-.16.45-.45h.13l.21-.27,0-.18.19,0a.49.49,0,0,1,0-.1,1.05,1.05,0,0,1,.15-.24l.23-.34.09,0a.53.53,0,0,1,.23-.38A.48.48,0,0,1,130,35a.46.46,0,0,1,.17-.1h.15l0-.26a.09.09,0,0,0,0-.08.17.17,0,0,0-.06-.12,1.33,1.33,0,0,1,.3-.39l0-.23.15-.11,0-.19a1,1,0,0,0,.15-.39l.19-.19Z"/><path id="_Compound_Path_13" data-name="&lt;Compound Path&gt;" class="cls-1" d="M142.51,31.91l-.06.26-.62.09-.41.3-.27,0-.34.21-.35.15a1.41,1.41,0,0,1-.41.28v.1l-.31.16-.22.34h-.23l-.11.33-.24.16a.63.63,0,0,0-.23.23l-.21.39c-.16.08-.25.27-.28.57l-.1,0-.05.13-.15.11-.15.36a1.06,1.06,0,0,0-.23.49l-.2.09v.44a.71.71,0,0,0-.1.23l0,.08-.21.08.07.17a3.25,3.25,0,0,1-.33.77l.11.27-.21.34a1.6,1.6,0,0,1,0,.33l0,.34.09.37a.4.4,0,0,0,.1.13l.15.16a1.11,1.11,0,0,1-.26.36l-.28-.1,0,.18-.47-.08v-.28l-.06-.19.06-.34-.06-.15,0-.73,0-.49c-.1,0-.14-.07-.14-.12a.44.44,0,0,1,.14-.26v-.32a2.93,2.93,0,0,0,0-.36l.08-.11L136,37l.06-.32-.06-.2.06-.58-.1-.16.06-.2-.12-.43,0-.33c0-.09,0-.22,0-.39l.06-.1-.13-.73-.15-.11.15-.36a1.22,1.22,0,0,1-.22-.71v-.29a.62.62,0,0,1-.12-.2,1.1,1.1,0,0,1,.53-.34l.16,0a1.08,1.08,0,0,0,.23.5l0,.53.21,1.62a.41.41,0,0,1-.12.28l.1.45-.06.32.06.34,0,.27.16.33-.1.06.08.49.16,0,.08-.42a1.34,1.34,0,0,1,.25-.37.71.71,0,0,0,.27-.53v-.13l.13-.06s0,0,.05-.08,0-.08.08-.08h.06l.13-.41.32-.22,0-.13h.15l-.07-.24.33-.14,0-.26.3,0a1,1,0,0,0,.31-.4l.2,0a2.14,2.14,0,0,1,.39-.39.11.11,0,0,0,.1-.06l.34-.19.09-.16.18-.1a1.8,1.8,0,0,1,.76-.41h.08a.44.44,0,0,0,.3-.1l.19.06a.45.45,0,0,1,.24-.1C142.37,31.84,142.5,31.88,142.51,31.91Z"/><path id="_Compound_Path_14" data-name="&lt;Compound Path&gt;" class="cls-1" d="M145.1,32.26l1.47.06,1.41-.06.34,0,.15,0h.77c.14,0,.22.06.22.18s-.12.24-.35.29a.29.29,0,0,0-.17,0,.4.4,0,0,0-.27.11l-.31-.06-.57,0A1.67,1.67,0,0,1,147,33l-.41-.07-.21.2h-.2V33l-.36.17h-.19l-.06.19a3,3,0,0,0-.63-.08c0,.08-.05.12-.1.12s-.07,0-.13-.08l-.3,0-.21.22-.06,1,0,.63-.06.8,0,.9.06.42v.39l.25.53v.09a.92.92,0,0,0,.43.7l.06.18.39.08.28.31.79.14,1-.24.3.1.74-.35.28,0a.41.41,0,0,1,.15.27c0,.11-.1.22-.28.35l-.15-.06-.34.28-.7.08-.24.15-.25-.15a1.67,1.67,0,0,1-.75.19l-.43-.09h-.23l-.77-.44-.37-.51-.25-.29-.38-1-.18-1,.09-.38-.17-.21.08-.24-.08-.39.21-.16-.09-.2.05-.25L143.6,35l0-.41,0-.21.09-.06v-.77c0-.19-.1-.28-.17-.28a.15.15,0,0,0-.13.08l-.24-.1-.33.08-.35-.25h-.17c-.17,0-.25-.09-.25-.28l0-.33-.15-.1.08-.19.32,0,.24,0,.34.11h.9l0-.49V31.3l-.15-.37.17-.12a.66.66,0,0,0,0-.16.26.26,0,0,0-.17-.23l.05-.83-.18-.26,0-.19c-.14,0-.21-.08-.21-.17l.15-.56a1.88,1.88,0,0,0,.2-.29,2.64,2.64,0,0,1,.63.36v0l-.08.21a1.12,1.12,0,0,1,.14.47v.06a.94.94,0,0,0-.06.31.21.21,0,0,0,.06.16l0,.18,0,.23-.18.3.12.53-.08.65.08.12-.12.19.16.53h.39Z"/><path id="_Compound_Path_15" data-name="&lt;Compound Path&gt;" class="cls-1" d="M157.79,38.62l-.15.16a4.9,4.9,0,0,0-.28.65l-.3.22,0,.12h-.28l-.28.3h-.36l-.24.13a.35.35,0,0,0-.23.12.67.67,0,0,0-.28-.06.74.74,0,0,0-.27.06v.13l-.39,0-.3,0-.28,0,0,.06-.11-.06-.19.06h-.13a1.18,1.18,0,0,0-.31.05l-.22-.07-.17.11-.08-.09-.16.09a1,1,0,0,0-.45-.15.46.46,0,0,0-.18.06.91.91,0,0,0-.37-.09l-.47-.06a1,1,0,0,0-.34,0l0-.09-.19.13a.19.19,0,0,0-.16-.09l-.06-.12c-.44,0-.66-.33-.66-.94l.45-.06,0-.16.1-.14.07.12h.12v.11l.2-.11c.11,0,.17.07.17.16a.44.44,0,0,1-.07.19l.19,0v.32l.54.08.21.19.07-.1,2.73-.17.93-.18.06-.1.23,0,.06-.09a2.14,2.14,0,0,0,.85-.34l.07.06,0-.12.15-.13,0-.07-.1-.15,0-.19-.24-.19,0-.17a.4.4,0,0,1-.21-.13l-.09.05-.21-.2h-.08l-.1-.13h-.21a.23.23,0,0,0-.24-.16l-.14,0a1.05,1.05,0,0,1-.64-.22h-.22l-.27-.17-.13.08-.07-.1h-.14l-.24-.2-.64-.27-.24-.22-.72-.12,0-.07-.6-.42-.27-.69-.22-.33-.06-1,.06-.11a1.21,1.21,0,0,1,.22-.73c.26-.15.4-.3.4-.45l.15,0a1.2,1.2,0,0,1,.4-.51l.26-.23,1.24-.53.62-.11.62-.19,1,.06,0,.13h.06a.38.38,0,0,1,.28.11v.19l.26.19c-.07.33-.11.52-.11.56a.17.17,0,0,1-.19.19c-.05,0-.16-.15-.3-.45l-.58,0-.14,0a1.33,1.33,0,0,0-.39-.25.05.05,0,0,0-.06.06l-.2.15a.84.84,0,0,0-.57.19.89.89,0,0,0-.55.26h-.24l-.18.13a1.46,1.46,0,0,1-.42.15l-.08.1-.12.07-.29.28-.19.31c-.21.13-.31.22-.32.26l-.22.88.11.06v.06a.73.73,0,0,0,.34.61v.1l.57.34h.14l.31.32h.43l.26.21.49.07.15.12.91.28c0,.09.06.13.16.13a1,1,0,0,1,.48.12,1.1,1.1,0,0,0,.42.16l0,.1.19.11h.4l.37.24a.65.65,0,0,0,.28.38l0,.07.1.14.19,0-.08.16A.67.67,0,0,1,157.79,38.62Z"/><path id="_Compound_Path_16" data-name="&lt;Compound Path&gt;" class="cls-1" d="M178.72,31.26l-.27.42,0,.34.1-.05a1.56,1.56,0,0,1-.14.49l-.13.29v1.09l-.22.49,0,.31-.18,1,.08.25-.17.77,0,.35-.15.55.15.53-.34.53.08.31-.19.36.11.21.08,1,.15.32a.71.71,0,0,0-.23.26l-.2,0-.1-1-.15,0c0-.13,0-.25,0-.38s0-.26,0-.38v-.42a.74.74,0,0,0-.06-.34l-.14-.28-.41-.06-.22-.28-.11.14-.2-.24-.34.1-.42-.33-.22,0-.42-.08-.25-.27-.16,0-1.3-.84-.15-.19-.45-.19-.28-.36-.25-.13-.34-.35-1-.41-.69-.88-.29,0-.16-.24a2.09,2.09,0,0,1-.68-.57h.11a1.58,1.58,0,0,1-.35-.49l-.14-.06h0a.29.29,0,0,0-.3.15,2.59,2.59,0,0,0-.15.63l-.2,1.09.2.66-.3,1.09q.12.66.12.72v.08a.6.6,0,0,1-.13.42c-.09.11-.14.18-.14.23s.09.08.27.15l-.12.44v.54l-.11.58.11.23-.11.16a2.12,2.12,0,0,1-.28,1h-.14c-.18,0-.27-.14-.27-.41v-.08l.27-.84-.11-.34.15-.45-.15-.17.17-.34-.24-.32a2.63,2.63,0,0,0,.05-.41,3.59,3.59,0,0,0-.05-.47l.09,0,.09-.21-.18-.32.18-.49-.11-.63.15-.69-.13-.47.15-1,0-.8.1-.73-.1-.22,0-1,.24-.06a.72.72,0,0,1-.28-.49.31.31,0,0,1,.12-.23l.39.09.1-.15a.43.43,0,0,1,.2.33.53.53,0,0,1-.12.3h.31l0,.49.26.22,0,.32.34.22.12.43a.62.62,0,0,0,.22.38l.71.51v0a.6.6,0,0,0,.22.39l.49.33.53.63,1.67,1.38h.18a.86.86,0,0,1,.29.35c.05.1.08.16.12.16l.68.22.54.45.31.1.61.35.57.16a1.43,1.43,0,0,0,.9.54l.32-.09h.06l0-.59.3-.65-.15-.14.06-1,.24-.37,0-.24a1.67,1.67,0,0,0-.21-.43l.24-.83-.1-.78.2-1.52-.25-.27.3-.88-.11-.11.15-.19,0-.15.32-.16.06.16.31-.06a1.25,1.25,0,0,0-.07.4.7.7,0,0,0,.11.37.45.45,0,0,1,.1.21l-.14.41Z"/><path id="_Compound_Path_17" data-name="&lt;Compound Path&gt;" class="cls-1" d="M188.19,35.19l-.14.44.08.19-.07.5a1.27,1.27,0,0,1-.16.34v.25l-.16.42-.12.19a2.59,2.59,0,0,0-.21.54l-.16.06-.08.29-.23.14-.18.39-.31.14,0,.29-.27.1-.26.33a.62.62,0,0,1-.28.15,1.78,1.78,0,0,0-.3.12c0,.23-.23.35-.59.38a.38.38,0,0,1-.3.16.58.58,0,0,1-.17,0,1.2,1.2,0,0,1-.54.32l-.17.26-.28-.17-.06.13-.31-.13-.75-.07a3.08,3.08,0,0,0-.56-.76l.09-.28-.31-.78.13-.25-.13-.58.13-.33s0-.13,0-.28a2.75,2.75,0,0,1,0-.29.4.4,0,0,1,.22-.35v-.12a1,1,0,0,1,.12-.47h.13a.59.59,0,0,0,.15-.4l-.06-.15.06-.32v-.21a.71.71,0,0,0,.19-.47l-.06-.34a.44.44,0,0,1,.06-.25c.22-.11.32-.22.32-.32a.33.33,0,0,0-.08-.22l.21-.37a.33.33,0,0,1,.13-.13l.11-.08,0-.21a.31.31,0,0,0,.33-.34,1.43,1.43,0,0,0-.06-.39.91.91,0,0,0,.93-.73h.14c.1-.09.17-.14.21-.14l.18.05a1.66,1.66,0,0,0,.51.05l.33-.14v.14a1.36,1.36,0,0,1,.54.24h.29c.07.14.14.21.2.21l0,0a1.7,1.7,0,0,0,.49.53l.11.26.2.09.33.49.34,1v.19Zm-.68.59a.45.45,0,0,0,.13-.26.26.26,0,0,0-.07-.15.34.34,0,0,1-.08-.1h.13a.4.4,0,0,0-.15-.22l0-.06-.14-.35,0-.47-.2-.33c-.15-.1-.23-.17-.23-.22v-.06a.1.1,0,0,0-.08-.11.09.09,0,0,1-.07-.09v0a1.8,1.8,0,0,1,.09-.27l-.14-.11-.2,0-.09-.15.09-.13-.29-.14-.2-.2-.61-.25-.25,0c-.41,0-.61.11-.6.34l0,.71-.43,0-.67.41-.06.23-.24.15-.1.62-.21.14s-.06.12-.06.31a1.34,1.34,0,0,0,0,.38l-.26.15c-.06,0-.09.16-.09.4a.44.44,0,0,1-.19.33v.2l-.19.31v.19l-.06.13,0,.29-.28.69.09.23v.5l-.09.35,0,.53.31.4c0,.06.16.13.37.23l.07.11.14,0,.14,0,.25-.11.51,0,.24-.06.06-.15.22,0q.33,0,.33-.21l.31.08.06-.17.2,0,.1-.24c.15-.12.24-.21.25-.29h.35l.1-.22.36-.32.14-.2a.64.64,0,0,1,.19-.18l.3-.15a2.32,2.32,0,0,1,.19-.6l0-.19.3-.13,0-.11.23-.3h-.11a.33.33,0,0,0,.09-.18.53.53,0,0,0,0-.16.53.53,0,0,1,0-.13.68.68,0,0,1,.07-.29.74.74,0,0,0,.06-.2C187.6,35.83,187.57,35.8,187.51,35.78Z"/><path id="_Compound_Path_18" data-name="&lt;Compound Path&gt;" class="cls-1" d="M202.81,31.42l-.07.3,0,.21L202.5,33l-.28.33-.1.48-.21.31-.34.86-.39.73-.61,1-.12.32-.33.62-.35.83-.64,1.28a2.73,2.73,0,0,1-.23.7,3.22,3.22,0,0,1-.45-.21l-.3-1-.39-.71v-.21l-.29-.77-.14-.16-.72-1.67-.6-1.22a.21.21,0,0,0-.15,0,.34.34,0,0,0-.18,0l-.41.69-.36.31-.49.75-.37.45-.19.61-.49.67-.05.25A7.5,7.5,0,0,0,193,39v.28l-.16.27-.23.63,0,.08-.12,0a1,1,0,0,0-.3.11.43.43,0,0,0-.22-.15v-.1l-.17-.24-.1-.58-.18-.36v-.28l0-.15-.29-1-.12-.73-.14-.17,0-.22-.21-.59v-.21l-.22-.62-.25-.39,0-.43,0-.2-.22-.63,0-.27a1.61,1.61,0,0,0-.16-.37.8.8,0,0,1-.14-.4.42.42,0,0,1,0-.17l-.15-.06-.28-.69.28-.08c0-.13.05-.19.09-.2L190,31l.12.19h.22l.08.37.11.08,0,.23.06.22-.06.23.24.43-.05.3.28,1,0,.26.13.72.28.73.15,1,.19.24v.45a4.82,4.82,0,0,1,.19.87l.22.19.08.28h.19l1-1.79c.11,0,.17-.13.17-.38.17-.11.25-.22.25-.33a.91.91,0,0,1,.13-.45.35.35,0,0,0,.13-.27.65.65,0,0,0,.3.11.65.65,0,0,1-.06-.26.15.15,0,0,1,.17-.17l.06,0,0,0s0,0,0,0l0,0c0-.05,0-.1.12-.16l0-.19v-.1c0-.06.05-.1.09-.1s.05,0,.05.1a.38.38,0,0,1,.21-.12.13.13,0,0,1,.08,0l0-.29.14-.2-.06-.29.12,0,0-.15.19-.09-.09-.1.09-.08,0-.11h.24a.93.93,0,0,1-.29-.62,1.11,1.11,0,0,1,.13-.45l.34,0a3.89,3.89,0,0,1,.39.47l.07.45a1.73,1.73,0,0,0,.19.38l0,.24.15.51v.27l.39.69v.19l.15.13.34.92,0,.38.23.32.65,1.52.38.08.68-1.42.26-.22.15-.47.28-.15v-.36c.3-.2.45-.39.45-.58v-.34h.1v-.1l.17-.14.36-.72a1.61,1.61,0,0,1,.33-.69l0-.21.31-.42.25-.69a4.41,4.41,0,0,1-.25-1.22c0-.21.06-.33.18-.38l.21.09c0,.06.11.1.28.12l.05.22Z"/></g></g><g id="_Group_3" data-name="&lt;Group&gt;"><path id="_Compound_Path_19" data-name="&lt;Compound Path&gt;" class="cls-2" d="M80.58.93l-.19,2.31-4.85-.32.82,15.27-2.73-.44L73.36,3.49l-5.68-.71,0-2.13Z"/><path id="_Compound_Path_20" data-name="&lt;Compound Path&gt;" class="cls-2" d="M91.73,10.88H89.39L89.47,16H87.15V10.88l-4.8.19.47,4.34-3,.4L80,11.07l-3.55-.19.38-1.77,2.87-.19q.38-7.59.38-8.92l2.7.41a26.63,26.63,0,0,0-.71,5.83,11.7,11.7,0,0,0,.16,2.27L87,8.73l.41-7.15L90,1.77l-.43,7,1.31.19Z"/><path id="_Compound_Path_21" data-name="&lt;Compound Path&gt;" class="cls-2" d="M107.33,11.26l-.16,1.45-2,.08c.2.85.39,1.72.58,2.59a12.89,12.89,0,0,0,.87,2.48l-3.25.19c-.09-1.67-.27-3.4-.54-5.18l-6,.22c-.31,1-.61,1.92-.92,2.86a12,12,0,0,0-.63,2.89l-3.76-.19c.91-1.62,1.81-3.43,2.72-5.45l-3,.11-.19-2.81,4.25.19q1.2-2.62,2.38-5.26A25.11,25.11,0,0,0,99.53,0l3.25.19q.94,6.23,2,11ZM102.45,11a53.7,53.7,0,0,0-1.74-7.11,42.49,42.49,0,0,0-3.14,6.87Z"/><path id="_Compound_Path_22" data-name="&lt;Compound Path&gt;" class="cls-2" d="M120.34,15.92l-2.07,1.91q-1.86-1.77-4-3.49a17.69,17.69,0,0,0-4.33-2.75,22.55,22.55,0,0,0,.57,5.64h-2.59q.14-3.94.13-7.11c0-4.69-.23-7.8-.71-9.33l2.6.19.21,5,8.35-4.77,1.85,1.47L110.25,8.4Z"/><path id="_Compound_Path_23" data-name="&lt;Compound Path&gt;" class="cls-2" d="M135.12,11.26,135,12.71l-2.05.08c.2.85.39,1.72.57,2.59a14.4,14.4,0,0,0,.87,2.48l-3.24.19a51,51,0,0,0-.55-5.18l-5.94.22c-.31,1-.62,1.92-.93,2.86a12.38,12.38,0,0,0-.62,2.89l-3.77-.19c.91-1.62,1.82-3.43,2.73-5.45l-3,.11-.19-2.81,4.25.19q1.2-2.62,2.37-5.26A24.67,24.67,0,0,0,127.32,0l3.24.19q1,6.23,2,11ZM130.24,11a52.06,52.06,0,0,0-1.75-7.11,42.44,42.44,0,0,0-3.13,6.87Z"/></g></g></g></svg>